<mxfile host="app.diagrams.net" agent="Mozilla/5.0 (X11; Ubuntu; Linux x86_64; rv:141.0) Gecko/20100101 Firefox/141.0" version="28.0.7">
  <diagram name="Page-1" id="hjvvxlk014iNPVyuemrw">
    <mxGraphModel dx="1283" dy="667" grid="1" gridSize="10" guides="1" tooltips="1" connect="1" arrows="1" fold="1" page="1" pageScale="1" pageWidth="850" pageHeight="1100" math="0" shadow="0">
      <root>
        <mxCell id="0" />
        <mxCell id="1" parent="0" />
        <mxCell id="up4mcVxyWvfQQLEX_1xD-1" value="" style="edgeStyle=none;html=1;" edge="1" parent="1" source="up4mcVxyWvfQQLEX_1xD-2" target="up4mcVxyWvfQQLEX_1xD-4">
          <mxGeometry relative="1" as="geometry" />
        </mxCell>
        <mxCell id="up4mcVxyWvfQQLEX_1xD-2" value="&lt;font style=&quot;font-size: 14px;&quot;&gt;Start&lt;/font&gt;" style="ellipse;whiteSpace=wrap;html=1;" vertex="1" parent="1">
          <mxGeometry x="350" y="30" width="120" height="60" as="geometry" />
        </mxCell>
        <mxCell id="up4mcVxyWvfQQLEX_1xD-34" style="edgeStyle=orthogonalEdgeStyle;rounded=0;orthogonalLoop=1;jettySize=auto;html=1;entryX=0.5;entryY=0;entryDx=0;entryDy=0;" edge="1" parent="1" source="up4mcVxyWvfQQLEX_1xD-4" target="up4mcVxyWvfQQLEX_1xD-32">
          <mxGeometry relative="1" as="geometry" />
        </mxCell>
        <mxCell id="up4mcVxyWvfQQLEX_1xD-4" value="초기 위치 이동 및 그리퍼 설정" style="rounded=0;whiteSpace=wrap;html=1;" vertex="1" parent="1">
          <mxGeometry x="305" y="110" width="210" height="60" as="geometry" />
        </mxCell>
        <mxCell id="up4mcVxyWvfQQLEX_1xD-44" style="edgeStyle=orthogonalEdgeStyle;rounded=0;orthogonalLoop=1;jettySize=auto;html=1;entryX=0.5;entryY=0;entryDx=0;entryDy=0;" edge="1" parent="1" source="up4mcVxyWvfQQLEX_1xD-6" target="up4mcVxyWvfQQLEX_1xD-43">
          <mxGeometry relative="1" as="geometry" />
        </mxCell>
        <mxCell id="up4mcVxyWvfQQLEX_1xD-6" value="&lt;div&gt;box folding&lt;/div&gt;force_control" style="rounded=0;whiteSpace=wrap;html=1;" vertex="1" parent="1">
          <mxGeometry x="305" y="450.47" width="210" height="60" as="geometry" />
        </mxCell>
        <mxCell id="up4mcVxyWvfQQLEX_1xD-47" style="edgeStyle=orthogonalEdgeStyle;rounded=0;orthogonalLoop=1;jettySize=auto;html=1;entryX=0.5;entryY=0;entryDx=0;entryDy=0;" edge="1" parent="1" source="up4mcVxyWvfQQLEX_1xD-11" target="up4mcVxyWvfQQLEX_1xD-15">
          <mxGeometry relative="1" as="geometry">
            <Array as="points">
              <mxPoint x="260" y="740.47" />
            </Array>
          </mxGeometry>
        </mxCell>
        <mxCell id="up4mcVxyWvfQQLEX_1xD-51" value="NO" style="edgeLabel;html=1;align=center;verticalAlign=middle;resizable=0;points=[];" vertex="1" connectable="0" parent="up4mcVxyWvfQQLEX_1xD-47">
          <mxGeometry x="0.3058" y="1" relative="1" as="geometry">
            <mxPoint as="offset" />
          </mxGeometry>
        </mxCell>
        <mxCell id="up4mcVxyWvfQQLEX_1xD-48" style="edgeStyle=orthogonalEdgeStyle;rounded=0;orthogonalLoop=1;jettySize=auto;html=1;entryX=0.5;entryY=0;entryDx=0;entryDy=0;" edge="1" parent="1" source="up4mcVxyWvfQQLEX_1xD-11" target="up4mcVxyWvfQQLEX_1xD-13">
          <mxGeometry relative="1" as="geometry">
            <Array as="points">
              <mxPoint x="560" y="740.47" />
            </Array>
          </mxGeometry>
        </mxCell>
        <mxCell id="up4mcVxyWvfQQLEX_1xD-52" value="YES" style="edgeLabel;html=1;align=center;verticalAlign=middle;resizable=0;points=[];" vertex="1" connectable="0" parent="up4mcVxyWvfQQLEX_1xD-48">
          <mxGeometry x="0.2951" y="1" relative="1" as="geometry">
            <mxPoint as="offset" />
          </mxGeometry>
        </mxCell>
        <mxCell id="up4mcVxyWvfQQLEX_1xD-11" value="fz_abs_max ≥ 10.0? (경계값 판별)" style="rhombus;whiteSpace=wrap;html=1;" vertex="1" parent="1">
          <mxGeometry x="285" y="700.47" width="250" height="80" as="geometry" />
        </mxCell>
        <mxCell id="up4mcVxyWvfQQLEX_1xD-12" value="" style="edgeStyle=none;html=1;" edge="1" parent="1" source="up4mcVxyWvfQQLEX_1xD-13" target="up4mcVxyWvfQQLEX_1xD-16">
          <mxGeometry relative="1" as="geometry" />
        </mxCell>
        <mxCell id="up4mcVxyWvfQQLEX_1xD-13" value="hard 물체로 판단&lt;div&gt;z축 -30 하강 후 grip&lt;/div&gt;" style="rounded=0;whiteSpace=wrap;html=1;" vertex="1" parent="1">
          <mxGeometry x="455" y="790.47" width="210" height="60" as="geometry" />
        </mxCell>
        <mxCell id="up4mcVxyWvfQQLEX_1xD-14" value="" style="edgeStyle=none;html=1;" edge="1" parent="1" source="up4mcVxyWvfQQLEX_1xD-15" target="up4mcVxyWvfQQLEX_1xD-17">
          <mxGeometry relative="1" as="geometry" />
        </mxCell>
        <mxCell id="up4mcVxyWvfQQLEX_1xD-15" value="soft 물체로 판단&lt;div&gt;z축 -35 하강 후 grip_soft&lt;/div&gt;" style="rounded=0;whiteSpace=wrap;html=1;" vertex="1" parent="1">
          <mxGeometry x="155" y="790.47" width="210" height="60" as="geometry" />
        </mxCell>
        <mxCell id="up4mcVxyWvfQQLEX_1xD-16" value="box 내부 이동 및 z 축 하강&lt;div&gt;물체 release&lt;/div&gt;" style="rounded=0;whiteSpace=wrap;html=1;" vertex="1" parent="1">
          <mxGeometry x="455" y="870.47" width="210" height="60" as="geometry" />
        </mxCell>
        <mxCell id="up4mcVxyWvfQQLEX_1xD-17" value="&lt;div&gt;box 내부 이동 및 z 축 하강&lt;/div&gt;&lt;div&gt;물체 release_soft&lt;/div&gt;" style="rounded=0;whiteSpace=wrap;html=1;" vertex="1" parent="1">
          <mxGeometry x="155" y="870.47" width="210" height="60" as="geometry" />
        </mxCell>
        <mxCell id="up4mcVxyWvfQQLEX_1xD-18" value="" style="edgeStyle=none;html=1;" edge="1" parent="1" source="up4mcVxyWvfQQLEX_1xD-19" target="up4mcVxyWvfQQLEX_1xD-21">
          <mxGeometry relative="1" as="geometry" />
        </mxCell>
        <mxCell id="up4mcVxyWvfQQLEX_1xD-19" value="Lid 닫기 작업 수행&lt;div&gt;(box_top -&amp;gt; box_close -&amp;gt; 진동)&lt;/div&gt;" style="rounded=0;whiteSpace=wrap;html=1;" vertex="1" parent="1">
          <mxGeometry x="305.13" y="980.47" width="210" height="60" as="geometry" />
        </mxCell>
        <mxCell id="up4mcVxyWvfQQLEX_1xD-20" value="" style="edgeStyle=none;html=1;" edge="1" parent="1" source="up4mcVxyWvfQQLEX_1xD-21" target="up4mcVxyWvfQQLEX_1xD-22">
          <mxGeometry relative="1" as="geometry" />
        </mxCell>
        <mxCell id="up4mcVxyWvfQQLEX_1xD-21" value="Tape 부착 작업 수행&lt;div&gt;move(tape_start), movec()&lt;/div&gt;" style="rounded=0;whiteSpace=wrap;html=1;" vertex="1" parent="1">
          <mxGeometry x="306.21999999999997" y="1060" width="210" height="60" as="geometry" />
        </mxCell>
        <mxCell id="up4mcVxyWvfQQLEX_1xD-22" value="&lt;span style=&quot;font-size: 14px;&quot;&gt;End&lt;/span&gt;" style="ellipse;whiteSpace=wrap;html=1;" vertex="1" parent="1">
          <mxGeometry x="350.13" y="1140" width="120" height="60" as="geometry" />
        </mxCell>
        <mxCell id="up4mcVxyWvfQQLEX_1xD-27" value="" style="endArrow=none;html=1;" edge="1" parent="1">
          <mxGeometry width="50" height="50" relative="1" as="geometry">
            <mxPoint x="259.04" y="960.94" as="sourcePoint" />
            <mxPoint x="259.13" y="930.47" as="targetPoint" />
          </mxGeometry>
        </mxCell>
        <mxCell id="up4mcVxyWvfQQLEX_1xD-28" value="" style="endArrow=none;html=1;" edge="1" parent="1">
          <mxGeometry width="50" height="50" relative="1" as="geometry">
            <mxPoint x="560.54" y="960.94" as="sourcePoint" />
            <mxPoint x="560.13" y="930.47" as="targetPoint" />
          </mxGeometry>
        </mxCell>
        <mxCell id="up4mcVxyWvfQQLEX_1xD-29" value="" style="endArrow=none;html=1;" edge="1" parent="1">
          <mxGeometry width="50" height="50" relative="1" as="geometry">
            <mxPoint x="260.04" y="960.94" as="sourcePoint" />
            <mxPoint x="560.04" y="960.94" as="targetPoint" />
          </mxGeometry>
        </mxCell>
        <mxCell id="up4mcVxyWvfQQLEX_1xD-30" value="" style="edgeStyle=none;html=1;" edge="1" parent="1">
          <mxGeometry relative="1" as="geometry">
            <mxPoint x="408.54" y="960.94" as="sourcePoint" />
            <mxPoint x="409.13" y="980.47" as="targetPoint" />
          </mxGeometry>
        </mxCell>
        <mxCell id="up4mcVxyWvfQQLEX_1xD-37" style="edgeStyle=orthogonalEdgeStyle;rounded=0;orthogonalLoop=1;jettySize=auto;html=1;entryX=0.5;entryY=0;entryDx=0;entryDy=0;exitX=0.5;exitY=1;exitDx=0;exitDy=0;" edge="1" parent="1" source="up4mcVxyWvfQQLEX_1xD-32" target="up4mcVxyWvfQQLEX_1xD-36">
          <mxGeometry relative="1" as="geometry">
            <mxPoint x="410" y="299.9999999999999" as="sourcePoint" />
          </mxGeometry>
        </mxCell>
        <mxCell id="up4mcVxyWvfQQLEX_1xD-53" value="YES" style="edgeLabel;html=1;align=center;verticalAlign=middle;resizable=0;points=[];" vertex="1" connectable="0" parent="up4mcVxyWvfQQLEX_1xD-37">
          <mxGeometry x="-0.0778" y="1" relative="1" as="geometry">
            <mxPoint as="offset" />
          </mxGeometry>
        </mxCell>
        <mxCell id="up4mcVxyWvfQQLEX_1xD-54" style="edgeStyle=orthogonalEdgeStyle;rounded=0;orthogonalLoop=1;jettySize=auto;html=1;" edge="1" parent="1" source="up4mcVxyWvfQQLEX_1xD-32">
          <mxGeometry relative="1" as="geometry">
            <mxPoint x="410" y="190" as="targetPoint" />
            <Array as="points">
              <mxPoint x="580" y="250" />
              <mxPoint x="580" y="190" />
              <mxPoint x="410" y="190" />
            </Array>
          </mxGeometry>
        </mxCell>
        <mxCell id="up4mcVxyWvfQQLEX_1xD-55" value="NO" style="edgeLabel;html=1;align=center;verticalAlign=middle;resizable=0;points=[];" vertex="1" connectable="0" parent="up4mcVxyWvfQQLEX_1xD-54">
          <mxGeometry x="-0.4545" y="-1" relative="1" as="geometry">
            <mxPoint as="offset" />
          </mxGeometry>
        </mxCell>
        <mxCell id="up4mcVxyWvfQQLEX_1xD-32" value="&lt;div&gt;order_info 구독&lt;/div&gt;ROS2 topic subscriber" style="rhombus;whiteSpace=wrap;html=1;" vertex="1" parent="1">
          <mxGeometry x="285" y="210" width="250" height="80" as="geometry" />
        </mxCell>
        <mxCell id="up4mcVxyWvfQQLEX_1xD-38" style="edgeStyle=orthogonalEdgeStyle;rounded=0;orthogonalLoop=1;jettySize=auto;html=1;entryX=0.5;entryY=0;entryDx=0;entryDy=0;" edge="1" parent="1" source="up4mcVxyWvfQQLEX_1xD-36" target="up4mcVxyWvfQQLEX_1xD-6">
          <mxGeometry relative="1" as="geometry" />
        </mxCell>
        <mxCell id="up4mcVxyWvfQQLEX_1xD-50" value="YES" style="edgeLabel;html=1;align=center;verticalAlign=middle;resizable=0;points=[];" vertex="1" connectable="0" parent="up4mcVxyWvfQQLEX_1xD-38">
          <mxGeometry x="0.0092" y="-1" relative="1" as="geometry">
            <mxPoint as="offset" />
          </mxGeometry>
        </mxCell>
        <mxCell id="up4mcVxyWvfQQLEX_1xD-40" style="edgeStyle=orthogonalEdgeStyle;rounded=0;orthogonalLoop=1;jettySize=auto;html=1;entryX=0;entryY=0.5;entryDx=0;entryDy=0;" edge="1" parent="1" source="up4mcVxyWvfQQLEX_1xD-36" target="up4mcVxyWvfQQLEX_1xD-39">
          <mxGeometry relative="1" as="geometry">
            <Array as="points">
              <mxPoint x="190" y="370" />
              <mxPoint x="190" y="641" />
            </Array>
          </mxGeometry>
        </mxCell>
        <mxCell id="up4mcVxyWvfQQLEX_1xD-49" value="NO" style="edgeLabel;html=1;align=center;verticalAlign=middle;resizable=0;points=[];" vertex="1" connectable="0" parent="up4mcVxyWvfQQLEX_1xD-40">
          <mxGeometry x="-0.0349" y="-1" relative="1" as="geometry">
            <mxPoint as="offset" />
          </mxGeometry>
        </mxCell>
        <mxCell id="up4mcVxyWvfQQLEX_1xD-36" value="if box_cnt == 0" style="rhombus;whiteSpace=wrap;html=1;" vertex="1" parent="1">
          <mxGeometry x="286.22" y="330" width="250" height="80" as="geometry" />
        </mxCell>
        <mxCell id="up4mcVxyWvfQQLEX_1xD-42" style="edgeStyle=orthogonalEdgeStyle;rounded=0;orthogonalLoop=1;jettySize=auto;html=1;entryX=0.5;entryY=0;entryDx=0;entryDy=0;" edge="1" parent="1" source="up4mcVxyWvfQQLEX_1xD-39" target="up4mcVxyWvfQQLEX_1xD-11">
          <mxGeometry relative="1" as="geometry" />
        </mxCell>
        <mxCell id="up4mcVxyWvfQQLEX_1xD-39" value="&lt;div&gt;강성 체크&lt;/div&gt;force_control" style="rounded=0;whiteSpace=wrap;html=1;" vertex="1" parent="1">
          <mxGeometry x="305" y="610.47" width="210" height="60" as="geometry" />
        </mxCell>
        <mxCell id="up4mcVxyWvfQQLEX_1xD-45" style="edgeStyle=orthogonalEdgeStyle;rounded=0;orthogonalLoop=1;jettySize=auto;html=1;" edge="1" parent="1" source="up4mcVxyWvfQQLEX_1xD-43" target="up4mcVxyWvfQQLEX_1xD-39">
          <mxGeometry relative="1" as="geometry" />
        </mxCell>
        <mxCell id="up4mcVxyWvfQQLEX_1xD-43" value="box_cnt = 1" style="rounded=0;whiteSpace=wrap;html=1;" vertex="1" parent="1">
          <mxGeometry x="305" y="530.47" width="210" height="60" as="geometry" />
        </mxCell>
      </root>
    </mxGraphModel>
  </diagram>
</mxfile>
